<svg width="192" height="192" viewBox="0 0 192 192" fill="none" xmlns="http://www.w3.org/2000/svg">
<rect width="192" height="192" fill="white"/>
<path fill-rule="evenodd" clip-rule="evenodd" d="M48.8866 42.7992C37.0382 65.8416 48.4071 101.603 73.1748 113.776C47.466 106.131 28.4791 73.3746 34.7931 52.2222C35.6938 49.2081 44.2395 44.8191 48.8866 42.7992ZM82.7512 26.5464C60.82 43.574 48.1203 87.1867 68.1513 108.644C42.1602 90.9711 47.82 49.2529 61.9762 34.4332C64.1048 32.2028 76.5133 27.9302 82.7512 26.5464ZM136.131 30.6756C97.6243 21.9692 56.3657 65.5819 64.0241 101.903C47.0358 64.0144 92.3679 10.1054 124.503 17.728C128.047 18.5655 135.464 25.0147 136.131 30.6756ZM155.472 58.6176C119.587 42.1991 71.7587 60.6241 64.1048 97.7606C65.4312 61.5153 105.758 36.3187 137.032 40.1076C144.453 41.0078 154.867 51.8908 155.472 58.6176ZM27.8472 57.18C32.6645 92.1579 52.252 115.111 88.0121 117.628C48.3981 121.99 15.143 84.9026 18.1947 65.5819C18.7459 62.0796 24.1861 59.5671 27.8472 57.18ZM172.044 102.503C170.798 93.8284 166.254 80.7823 160.774 75.3094C140.505 55.084 84.1493 56.0111 66.9548 92.8566C90.6784 62.0572 135.262 59.7015 172.044 102.503Z" fill="#9286AF"/>
<path fill-rule="evenodd" clip-rule="evenodd" d="M143.279 149.251C155.128 126.209 143.759 90.4474 118.991 78.2746C144.7 85.9195 163.687 118.676 157.368 139.833C156.468 142.843 147.927 147.232 143.279 149.251ZM109.415 165.504C131.342 148.477 144.046 104.864 124.01 83.407C150.006 101.08 144.346 142.798 130.19 157.618C128.061 159.848 115.653 164.12 109.415 165.504ZM56.0346 161.375C94.5417 170.081 135.8 126.469 128.137 90.1473C145.126 128.036 99.7937 181.945 67.6589 174.323C64.1142 173.485 56.7023 167.036 56.0346 161.375ZM36.6936 133.433C72.5793 149.852 120.407 131.427 128.061 94.29C126.735 130.535 86.4083 155.732 55.1339 151.943C47.713 151.043 37.2986 140.16 36.6936 133.433ZM164.319 134.871C159.502 99.8928 139.91 76.9399 104.154 74.423C143.768 70.0608 177.023 107.148 173.971 126.469C173.42 129.971 167.976 132.484 164.319 134.871ZM20.1221 89.5472C21.3679 98.2223 25.9118 111.268 31.3923 116.741C51.6564 136.967 108.012 136.04 125.207 99.1941C101.488 129.993 56.9039 132.349 20.1221 89.5472Z" fill="#99436F"/>
</svg>
