<svg width="30" height="29" viewBox="0 0 30 29" fill="none" xmlns="http://www.w3.org/2000/svg">
<path d="M18.5216 14.398L29.2612 4.11043C29.7315 3.65888 29.9957 3.04643 29.9957 2.40784C29.9957 1.76924 29.7315 1.1568 29.2612 0.705239C28.7909 0.253682 28.153 0 27.4879 0C26.8228 0 26.185 0.253682 25.7146 0.705239L15 11.0167L4.28535 0.705239C3.81505 0.253682 3.17718 -4.75792e-09 2.51207 0C1.84696 4.75792e-09 1.20909 0.253682 0.738782 0.705239C0.268477 1.1568 0.00426239 1.76924 0.00426238 2.40784C0.00426238 3.04643 0.268477 3.65888 0.738782 4.11043L11.4784 14.398L0.738782 24.6855C0.504687 24.9084 0.318881 25.1736 0.192082 25.4658C0.0652831 25.7581 0 26.0715 0 26.3881C0 26.7046 0.0652831 27.0181 0.192082 27.3103C0.318881 27.6025 0.504687 27.8677 0.738782 28.0907C0.970965 28.3154 1.2472 28.4938 1.55155 28.6156C1.85591 28.7373 2.18236 28.8 2.51207 28.8C2.84178 28.8 3.16823 28.7373 3.47258 28.6156C3.77694 28.4938 4.05317 28.3154 4.28535 28.0907L15 17.7792L25.7146 28.0907C25.9468 28.3154 26.2231 28.4938 26.5274 28.6156C26.8318 28.7373 27.1582 28.8 27.4879 28.8C27.8176 28.8 28.1441 28.7373 28.4484 28.6156C28.7528 28.4938 29.029 28.3154 29.2612 28.0907C29.4953 27.8677 29.6811 27.6025 29.8079 27.3103C29.9347 27.0181 30 26.7046 30 26.3881C30 26.0715 29.9347 25.7581 29.8079 25.4658C29.6811 25.1736 29.4953 24.9084 29.2612 24.6855L18.5216 14.398Z" fill="#596EEF" fill-opacity="0.5"/>
</svg>
