<svg width="42" height="36" viewBox="0 0 42 36" fill="none" xmlns="http://www.w3.org/2000/svg">
<path d="M42 25.6523C42 24.0503 40.9682 22.6972 39.5391 22.1876V9.4404L42 8.42576L21 0L0 8.42576L21 16.8516L37.0781 10.4286V22.1876C35.649 22.6972 34.6172 24.0503 34.6172 25.6523C34.6172 27.119 35.4834 28.3781 36.7255 28.973L34.6809 35.1068L37.0145 35.8854L38.3086 32.0029L39.6027 35.8854L41.9363 35.1068L39.8917 28.973C41.1338 28.3781 42 27.1191 42 25.6523Z" fill="#C2CEDF"/>
<path d="M21 19.5036L9.92578 15.0568V18.2695C9.92578 21.7771 14.6866 24.4219 21 24.4219C27.3134 24.4219 32.0742 21.7771 32.0742 18.2695V15.0568L21 19.5036Z" fill="#C2CEDF"/>
</svg>
