<svg width="24" height="24" viewBox="0 0 24 24" fill="none" xmlns="http://www.w3.org/2000/svg">
<path d="M20.0863 14.3539L16.3739 12.9259C16.6264 11.7319 16.3885 10.4382 15.6193 9.37896L19.4989 5.49939C21.4589 6.69191 24 5.27741 24 2.96471C24 1.32998 22.67 0 21.0353 0C18.7207 0 17.3093 2.54311 18.5006 4.50113L14.621 8.38071C12.9554 7.17115 10.6719 7.25393 9.09534 8.60452L7.12094 6.92621C8.10598 4.96569 6.67355 2.63529 4.47059 2.63529C2.83586 2.63529 1.50588 3.96527 1.50588 5.6C1.50588 8.02631 4.26649 9.40711 6.20612 8.00141L8.18019 9.67944C7.2464 11.2108 7.32028 13.1608 8.38075 14.621L5.79859 17.2032C3.35633 15.5474 0 17.293 0 20.2824C0 22.3323 1.66772 24 3.71765 24C6.70447 24 8.45435 20.6462 6.7968 18.2015L9.37896 15.6193C10.4611 16.4052 11.8122 16.6511 13.0702 16.3408L14.6751 20.1343C13.157 21.4813 14.112 24 16.1412 24C17.3608 24 18.3529 23.0078 18.3529 21.7882C18.3529 20.5209 17.2758 19.4862 15.9749 19.5834L14.3697 15.7892C14.9848 15.4031 15.4998 14.8716 15.8659 14.2431L19.5789 15.6714C19.526 16.9362 20.5405 17.9765 21.7882 17.9765C23.0078 17.9765 24 16.9843 24 15.7647C24 13.7132 21.4124 12.7568 20.0863 14.3539Z" fill="#C2CEDF"/>
</svg>
