<svg width="42" height="42" viewBox="0 0 42 42" fill="none" xmlns="http://www.w3.org/2000/svg">
<path d="M10.4579 22.097H11.4601L10.9699 17.4146C10.904 16.7855 10.3739 16.3078 9.74137 16.308C8.94624 16.3082 8.01631 16.3082 8.01631 16.3082C7.37896 16.3082 6.88406 16.8846 7.00346 17.5112C7.03278 17.6578 6.88093 16.8866 7.40695 19.5666C7.69689 21.0323 8.97984 22.097 10.4579 22.097Z" fill="#C2CEDF"/>
<path d="M22.9127 10.3793C18.9544 10.3793 18.824 10.361 18.3416 10.432C16.474 10.6938 14.8634 11.9306 14.0654 13.65H27.9308C27.0355 11.7209 25.1035 10.3793 22.9127 10.3793Z" fill="#C2CEDF"/>
<path d="M13.7682 20.4131L18.5838 20.9796C21.2903 19.0679 20.6857 19.0536 23.4125 20.9796L28.2281 20.4131L28.6777 16.1204H13.3186L13.7682 20.4131Z" fill="#C2CEDF"/>
<path d="M12.083 22.7369C14.5522 31.3499 27.6283 31.3467 30.0075 22.6644C22.7726 23.5439 23.1901 23.4969 23.0872 23.4969C22.5659 23.4969 22.4012 23.2902 20.9981 22.2988L19.6221 23.2705C19.3726 23.4467 19.0679 23.5241 18.7648 23.4879C11.3294 22.585 12.0573 22.6473 12.083 22.7369Z" fill="#C2CEDF"/>
<path d="M0.723818 37.0049C0.283269 37.2058 0 37.6456 0 38.1298V40.7648C0 41.4466 0.553363 42 1.23519 42H19.4855L13.9617 30.9879L0.723818 37.0049Z" fill="#C2CEDF"/>
<path d="M16.6733 30.8858L20.9232 39.3567L25.2505 30.9542C22.4598 31.9036 19.4936 31.8932 16.6733 30.8858Z" fill="#C2CEDF"/>
<path d="M41.2724 37.0049L28.0156 30.9797L22.3403 42H40.7611C41.4429 42 41.9962 41.4466 41.9962 40.7648V38.1298C41.9962 37.6456 41.713 37.2058 41.2724 37.0049Z" fill="#C2CEDF"/>
<path d="M32.2547 16.308C31.6224 16.3078 31.0922 16.7853 31.0263 17.4142L30.5347 22.097H31.5385C33.0166 22.097 34.2996 21.0323 34.5894 19.5649C34.9918 17.5166 34.9905 17.531 34.9905 17.5228C35.1183 16.884 34.6156 16.3082 33.9801 16.3082C33.9801 16.3082 33.0499 16.3082 32.2547 16.308Z" fill="#C2CEDF"/>
<path d="M6.43439 9.94695C6.91035 9.98895 7.34102 10.0853 7.71651 10.2319C6.91529 11.2851 6.32817 12.3934 5.99302 13.4895C5.93752 13.6695 6.07833 13.8378 6.25455 13.8378H11.3702C12.3696 10.3008 15.5936 7.9089 19.0835 7.9089C22.8694 7.9089 23.6237 7.83017 24.8757 8.16087C27.6151 8.87555 29.835 11.0387 30.6259 13.8378H35.7458C35.9269 13.8378 36.0564 13.6626 36.0031 13.4895C35.6679 12.3926 35.0808 11.2851 34.2796 10.2319C34.6551 10.0853 35.0857 9.98895 35.5617 9.94695C36.3893 9.87556 36.9135 9.01661 36.596 8.24734C34.1997 2.41454 25.8279 -1.78097 20.998 0.754702C16.1956 -1.76746 7.81113 2.37881 5.40013 8.24734C5.08326 9.01505 5.60509 9.87539 6.43439 9.94695Z" fill="#C2CEDF"/>
</svg>
