<?xml version="1.0" encoding="UTF-8" standalone="no"?>
<svg
   xmlns:dc="http://purl.org/dc/elements/1.1/"
   xmlns:cc="http://creativecommons.org/ns#"
   xmlns:rdf="http://www.w3.org/1999/02/22-rdf-syntax-ns#"
   xmlns:svg="http://www.w3.org/2000/svg"
   xmlns="http://www.w3.org/2000/svg"
   viewBox="0 0 202 119.33333"
   height="119.33333"
   width="202"
   xml:space="preserve"
   id="svg2"
   version="1.1"><metadata
     id="metadata8"><rdf:RDF><cc:Work
         rdf:about=""><dc:format>image/svg+xml</dc:format><dc:type
           rdf:resource="http://purl.org/dc/dcmitype/StillImage" /></cc:Work></rdf:RDF></metadata><defs
     id="defs6"><clipPath
       id="clipPath18"
       clipPathUnits="userSpaceOnUse"><path
         id="path16"
         d="M 0,89.5 H 151.5 V 0 H 0 Z" /></clipPath><clipPath
       id="clipPath34"
       clipPathUnits="userSpaceOnUse"><path
         id="path32"
         d="M 0,89.5 H 151.5 V 0 H 0 Z" /></clipPath></defs><g
     transform="matrix(1.3333333,0,0,-1.3333333,0,119.33333)"
     id="g10"><g
       id="g12"><g
         clip-path="url(#clipPath18)"
         id="g14"><g
           transform="translate(51.4722,59.5488)"
           id="g20"><path
             id="path22"
             style="fill:#99436f;fill-opacity:1;fill-rule:evenodd;stroke:none"
             d="m 0,0 c 0,-0.703 0.221,-1.533 0.656,-2.49 0.435,-0.958 1.144,-1.801 2.125,-2.52 0.981,-0.719 2.223,-1.08 3.733,-1.08 1.556,0 2.705,0.215 3.454,0.639 0.749,0.423 1.545,1.207 2.398,2.357 l 11.837,14.287 c 0.377,0.499 0.673,0.818 0.894,0.958 0.22,0.145 0.493,0.214 0.825,0.214 0.214,0 0.435,-0.081 0.661,-0.243 0.227,-0.168 0.343,-0.395 0.343,-0.691 v -16.72 h 6.902 v 19.408 c 0,0.337 -0.11,0.801 -0.33,1.381 -0.221,0.586 -0.587,1.19 -1.098,1.823 -0.51,0.627 -1.19,1.161 -2.032,1.597 -0.847,0.435 -1.863,0.656 -3.054,0.656 -1.509,0 -2.687,-0.25 -3.547,-0.755 -0.853,-0.505 -1.544,-1.057 -2.066,-1.643 L 9.783,3.146 C 9.405,2.636 9.085,2.311 8.83,2.171 8.569,2.026 8.262,1.957 7.907,1.957 7.501,1.957 7.251,2.078 7.152,2.322 7.054,2.566 7.007,2.909 7.007,3.35 V 19.065 H 0 Z" /></g><g
           transform="translate(99.731,54.2603)"
           id="g24"><path
             id="path26"
             style="fill:#99436f;fill-opacity:1;fill-rule:evenodd;stroke:none"
             d="m 0,0 -11.359,9.375 c -0.881,0.578 -1.477,1.759 -1.477,2.985 0,1.07 0.395,2.135 1.237,2.827 l 11.071,9.167 H 8.807 L -5.138,12.464 7.479,2.239 v 14.306 c 0,1.162 0.342,2.352 1.021,3.582 0.68,1.231 1.615,2.247 2.799,3.054 1.184,0.807 2.467,1.208 3.848,1.208 h 17.196 c 0.952,0 1.916,-0.372 2.891,-1.121 0.976,-0.749 1.783,-1.654 2.421,-2.706 0.645,-1.056 0.964,-1.997 0.964,-2.821 V 0 h -7.176 v 15.117 c 0,0.372 -0.162,0.824 -0.493,1.353 -0.331,0.523 -0.737,0.975 -1.231,1.358 -0.493,0.378 -0.963,0.569 -1.405,0.569 H 17.749 c -0.407,0 -0.877,-0.162 -1.405,-0.481 -0.523,-0.326 -0.987,-0.767 -1.376,-1.33 -0.389,-0.563 -0.586,-1.173 -0.586,-1.846 l 0,-14.74 z" /></g></g></g><g
       id="g28"><g
         clip-path="url(#clipPath34)"
         id="g30"><g
           transform="translate(16.686,75.1841)"
           id="g36"><path
             id="path38"
             style="fill:#9286af;fill-opacity:1;fill-rule:evenodd;stroke:none"
             d="m 0,0 c -2.644,-5.145 -0.107,-13.13 5.42,-15.848 -5.737,1.707 -9.974,9.021 -8.565,13.744 C -2.944,-1.431 -1.037,-0.451 0,0 M 7.557,3.629 C 2.663,-0.173 -0.171,-9.911 4.299,-14.702 -1.501,-10.756 -0.238,-1.441 2.921,1.868 3.396,2.366 6.165,3.32 7.557,3.629 M 19.469,2.707 C 10.876,4.651 1.669,-5.087 3.378,-13.197 -0.413,-4.737 9.703,7.3 16.874,5.598 17.665,5.411 19.32,3.971 19.469,2.707 m 4.316,-6.239 C 15.777,0.134 5.104,-3.98 3.396,-12.272 3.692,-4.179 12.691,1.447 19.67,0.601 21.326,0.4 23.65,-2.03 23.785,-3.532 m -28.48,0.321 c 1.075,-7.81 5.446,-12.935 13.426,-13.497 -8.84,-0.974 -16.261,7.307 -15.58,11.621 0.123,0.782 1.337,1.343 2.154,1.876 m 32.178,-10.12 c -0.278,1.937 -1.292,4.85 -2.515,6.072 -4.523,4.516 -17.099,4.309 -20.936,-3.918 5.294,6.877 15.243,7.403 23.451,-2.154" /></g><g
           transform="translate(37.75,51.415)"
           id="g40"><path
             id="path42"
             style="fill:#99436f;fill-opacity:1;fill-rule:evenodd;stroke:none"
             d="M 0,0 C 2.644,5.145 0.107,13.13 -5.42,15.848 0.317,14.141 4.554,6.827 3.144,2.103 2.943,1.431 1.037,0.451 0,0 M -7.557,-3.629 C -2.664,0.173 0.171,9.911 -4.3,14.702 1.501,10.756 0.238,1.441 -2.921,-1.868 -3.396,-2.366 -6.165,-3.32 -7.557,-3.629 m -11.912,0.922 c 8.593,-1.944 17.8,7.794 16.09,15.904 3.791,-8.46 -6.325,-20.497 -13.496,-18.795 -0.791,0.187 -2.445,1.627 -2.594,2.891 m -4.316,6.239 c 8.008,-3.666 18.681,0.448 20.389,8.74 C -3.692,4.179 -12.691,-1.447 -19.67,-0.601 -21.326,-0.4 -23.65,2.03 -23.785,3.532 M 4.695,3.211 C 3.62,11.021 -0.752,16.146 -8.731,16.708 0.109,17.682 7.53,9.401 6.849,5.087 6.726,4.305 5.511,3.744 4.695,3.211 m -32.178,10.12 c 0.278,-1.937 1.292,-4.85 2.515,-6.072 C -20.446,2.743 -7.87,2.95 -4.033,11.177 -9.326,4.3 -19.275,3.774 -27.483,13.331" /></g><g
           transform="translate(138.8652,45.105)"
           id="g44"><path
             id="path46"
             style="fill:#6f6e72;fill-opacity:1;fill-rule:evenodd;stroke:none"
             d="M 0,0 C 0,-0.069 -0.025,-0.127 -0.073,-0.177 -0.123,-0.226 -0.182,-0.25 -0.25,-0.25 h -2.066 v -5.723 c 0,-0.069 -0.026,-0.128 -0.074,-0.177 -0.05,-0.049 -0.108,-0.074 -0.177,-0.074 h -0.601 c -0.069,0 -0.127,0.025 -0.178,0.074 -0.048,0.049 -0.072,0.108 -0.072,0.177 v 5.723 h -2.067 c -0.069,0 -0.127,0.024 -0.177,0.073 -0.048,0.05 -0.073,0.108 -0.073,0.177 v 0.411 c 0,0.069 0.025,0.128 0.073,0.177 0.05,0.049 0.108,0.074 0.177,0.074 h 5.235 c 0.068,0 0.127,-0.025 0.177,-0.074 C -0.025,0.539 0,0.48 0,0.411 Z m -6.658,0.361 -2.068,-7.209 c -0.219,-0.757 -0.492,-1.256 -0.818,-1.498 -0.326,-0.24 -0.818,-0.359 -1.474,-0.359 -0.235,0 -0.471,0.017 -0.707,0.05 -0.234,0.035 -0.395,0.071 -0.48,0.104 -0.086,0.036 -0.128,0.09 -0.128,0.163 v 0.459 c 0,0.134 0.092,0.2 0.276,0.2 0.549,-0.047 0.92,-0.072 1.113,-0.072 0.354,0 0.628,0.069 0.82,0.204 0.189,0.138 0.374,0.595 0.549,1.373 h -0.177 c -0.283,0 -0.487,0.078 -0.614,0.23 -0.13,0.152 -0.234,0.363 -0.316,0.632 l -1.663,5.723 c -0.012,0.034 -0.019,0.067 -0.019,0.098 0,0.136 0.077,0.203 0.234,0.203 h 0.685 c 0.106,0 0.177,-0.065 0.213,-0.197 l 1.48,-5.434 c 0.045,-0.184 0.125,-0.276 0.237,-0.276 h 0.202 l 1.524,5.723 c 0.031,0.123 0.111,0.184 0.238,0.184 h 0.703 c 0.134,0 0.201,-0.07 0.201,-0.209 0,-0.027 -0.002,-0.058 -0.011,-0.092 M -13.299,0 c 0,-0.069 -0.025,-0.127 -0.073,-0.177 -0.05,-0.049 -0.108,-0.073 -0.177,-0.073 h -2.066 v -5.723 c 0,-0.069 -0.026,-0.128 -0.073,-0.177 -0.051,-0.049 -0.109,-0.074 -0.178,-0.074 h -0.601 c -0.069,0 -0.127,0.025 -0.177,0.074 -0.048,0.049 -0.073,0.108 -0.073,0.177 v 5.723 h -2.067 c -0.069,0 -0.127,0.024 -0.177,0.073 -0.048,0.05 -0.073,0.108 -0.073,0.177 v 0.411 c 0,0.069 0.025,0.128 0.073,0.177 0.05,0.049 0.108,0.074 0.177,0.074 h 5.235 c 0.069,0 0.127,-0.025 0.177,-0.074 0.048,-0.049 0.073,-0.108 0.073,-0.177 z m -7.031,-5.973 c 0,-0.069 -0.023,-0.128 -0.069,-0.177 -0.044,-0.049 -0.098,-0.074 -0.165,-0.074 h -0.628 c -0.067,0 -0.123,0.025 -0.169,0.074 -0.048,0.049 -0.071,0.108 -0.071,0.177 v 0.238 c -0.664,-0.382 -1.325,-0.574 -1.987,-0.574 -1.455,0 -2.183,0.868 -2.183,2.604 v 4.116 c 0,0.069 0.025,0.128 0.073,0.177 0.05,0.049 0.109,0.074 0.177,0.074 h 0.606 c 0.067,0 0.123,-0.025 0.171,-0.074 0.05,-0.049 0.075,-0.108 0.075,-0.177 v -4.116 c 0,-0.59 0.101,-1.014 0.303,-1.271 0.2,-0.256 0.561,-0.386 1.079,-0.386 0.472,0 1.035,0.163 1.686,0.489 v 5.284 c 0,0.065 0.025,0.123 0.078,0.173 0.049,0.053 0.108,0.078 0.173,0.078 h 0.617 c 0.063,0 0.117,-0.025 0.163,-0.074 0.046,-0.049 0.071,-0.108 0.071,-0.177 z M -26.886,0 c 0,-0.069 -0.025,-0.127 -0.072,-0.177 -0.05,-0.049 -0.109,-0.073 -0.178,-0.073 h -2.066 v -5.723 c 0,-0.069 -0.025,-0.128 -0.073,-0.177 -0.05,-0.049 -0.109,-0.074 -0.178,-0.074 h -0.601 c -0.069,0 -0.127,0.025 -0.177,0.074 -0.048,0.049 -0.073,0.108 -0.073,0.177 v 5.723 h -2.066 c -0.069,0 -0.128,0.024 -0.178,0.073 -0.048,0.05 -0.073,0.108 -0.073,0.177 v 0.411 c 0,0.069 0.025,0.128 0.073,0.177 0.05,0.049 0.109,0.074 0.178,0.074 h 5.234 c 0.069,0 0.128,-0.025 0.178,-0.074 0.047,-0.049 0.072,-0.108 0.072,-0.177 z m -6.726,-5.9 c 0,-0.138 -0.044,-0.221 -0.134,-0.25 -0.089,-0.03 -0.311,-0.063 -0.661,-0.101 -0.351,-0.04 -0.691,-0.058 -1.021,-0.058 -0.83,0 -1.484,0.271 -1.96,0.814 -0.473,0.54 -0.712,1.284 -0.712,2.224 v 0.979 c 0,0.946 0.236,1.689 0.71,2.231 0.472,0.543 1.127,0.814 1.962,0.814 0.411,0 0.793,-0.024 1.144,-0.073 0.35,-0.05 0.551,-0.094 0.599,-0.131 0.05,-0.04 0.073,-0.111 0.073,-0.211 v -0.453 c 0,-0.123 -0.088,-0.183 -0.263,-0.183 -0.518,0.056 -1.035,0.085 -1.553,0.085 -1.044,0 -1.565,-0.693 -1.565,-2.079 v -0.979 c 0,-1.385 0.521,-2.078 1.565,-2.078 0.453,0 0.823,0.015 1.111,0.046 0.288,0.031 0.444,0.046 0.473,0.046 0.155,0 0.232,-0.063 0.232,-0.19 z m -5.967,-0.073 c 0,-0.069 -0.025,-0.128 -0.073,-0.177 -0.05,-0.049 -0.109,-0.074 -0.177,-0.074 h -0.599 c -0.072,0 -0.13,0.025 -0.178,0.074 -0.05,0.049 -0.075,0.108 -0.075,0.177 v 2.794 H -44 v -2.794 c 0,-0.069 -0.024,-0.128 -0.075,-0.177 -0.048,-0.049 -0.104,-0.074 -0.171,-0.074 h -0.605 c -0.069,0 -0.127,0.025 -0.177,0.074 -0.048,0.049 -0.073,0.108 -0.073,0.177 v 6.384 c 0,0.069 0.025,0.128 0.073,0.177 0.05,0.049 0.108,0.074 0.177,0.074 h 0.605 c 0.067,0 0.123,-0.025 0.171,-0.074 C -44.024,0.539 -44,0.48 -44,0.411 v -2.655 h 3.319 v 2.655 c 0,0.069 0.025,0.128 0.075,0.177 0.048,0.049 0.106,0.074 0.178,0.074 h 0.599 c 0.068,0 0.127,-0.025 0.177,-0.074 0.048,-0.049 0.073,-0.108 0.073,-0.177 z m -7.227,0 c 0,-0.069 -0.023,-0.128 -0.069,-0.177 -0.044,-0.049 -0.098,-0.074 -0.165,-0.074 h -0.628 c -0.067,0 -0.124,0.025 -0.169,0.074 -0.048,0.049 -0.071,0.108 -0.071,0.177 v 0.238 c -0.664,-0.382 -1.325,-0.574 -1.987,-0.574 -1.455,0 -2.183,0.868 -2.183,2.604 v 4.116 c 0,0.069 0.025,0.128 0.073,0.177 0.05,0.049 0.108,0.074 0.177,0.074 h 0.605 c 0.067,0 0.124,-0.025 0.172,-0.074 0.05,-0.049 0.074,-0.108 0.074,-0.177 v -4.116 c 0,-0.59 0.101,-1.014 0.303,-1.271 0.2,-0.256 0.562,-0.386 1.079,-0.386 0.472,0 1.035,0.163 1.687,0.489 v 5.284 c 0,0.065 0.025,0.123 0.077,0.173 0.05,0.053 0.108,0.078 0.173,0.078 h 0.618 c 0.062,0 0.117,-0.025 0.163,-0.074 0.045,-0.049 0.071,-0.108 0.071,-0.177 z" /></g><g
           transform="translate(138.4438,25.6865)"
           id="g48"><path
             id="path50"
             style="fill:#6f6e72;fill-opacity:1;fill-rule:evenodd;stroke:none"
             d="M 0,0 C 0,-0.069 -0.023,-0.127 -0.069,-0.177 -0.113,-0.226 -0.167,-0.25 -0.234,-0.25 h -0.628 c -0.067,0 -0.123,0.024 -0.169,0.073 -0.048,0.05 -0.071,0.108 -0.071,0.177 v 0.238 c -0.664,-0.382 -1.325,-0.574 -1.987,-0.574 -1.454,0 -2.183,0.868 -2.183,2.605 v 4.115 c 0,0.069 0.025,0.128 0.073,0.178 0.05,0.048 0.109,0.073 0.178,0.073 h 0.605 c 0.067,0 0.123,-0.025 0.171,-0.073 0.05,-0.05 0.075,-0.109 0.075,-0.178 V 2.269 c 0,-0.591 0.101,-1.015 0.303,-1.271 0.2,-0.257 0.561,-0.386 1.078,-0.386 0.472,0 1.036,0.162 1.687,0.488 v 5.284 c 0,0.065 0.025,0.123 0.078,0.174 0.049,0.052 0.107,0.077 0.172,0.077 h 0.618 c 0.063,0 0.117,-0.025 0.163,-0.073 C -0.025,6.512 0,6.453 0,6.384 Z m -0.674,9.502 c 0.094,0 0.142,-0.052 0.142,-0.152 0,-0.23 -0.067,-0.489 -0.198,-0.781 C -0.864,8.277 -1.098,8.031 -1.434,7.831 -1.772,7.628 -2.152,7.528 -2.576,7.528 c -0.598,0 -1.089,0.181 -1.473,0.549 -0.382,0.367 -0.574,0.791 -0.574,1.273 0,0.1 0.046,0.152 0.14,0.152 h 0.465 c 0.115,0 0.178,-0.064 0.19,-0.196 0.032,-0.309 0.167,-0.553 0.403,-0.733 0.236,-0.179 0.52,-0.268 0.849,-0.268 0.326,0 0.608,0.089 0.846,0.268 0.236,0.18 0.369,0.424 0.403,0.733 0.012,0.132 0.075,0.196 0.189,0.196 z M -7.847,2.715 v 0.954 c 0,1.394 -0.564,2.091 -1.693,2.091 -1.116,0 -1.676,-0.697 -1.676,-2.091 V 2.715 c 0,-1.394 0.56,-2.091 1.676,-2.091 0.553,0 0.975,0.177 1.263,0.534 0.288,0.357 0.43,0.877 0.43,1.557 m 1.101,0 c 0,-0.953 -0.244,-1.701 -0.734,-2.241 -0.488,-0.541 -1.175,-0.81 -2.06,-0.81 -0.885,0 -1.569,0.269 -2.056,0.808 -0.484,0.538 -0.726,1.285 -0.726,2.243 v 0.954 c 0,0.941 0.238,1.686 0.716,2.235 0.476,0.547 1.165,0.823 2.066,0.823 0.885,0 1.572,-0.272 2.06,-0.81 0.49,-0.541 0.734,-1.29 0.734,-2.248 z M -13.802,0 c 0,-0.069 -0.025,-0.127 -0.073,-0.177 -0.05,-0.049 -0.108,-0.073 -0.177,-0.073 h -0.599 c -0.071,0 -0.13,0.024 -0.178,0.073 -0.049,0.05 -0.075,0.108 -0.075,0.177 v 2.794 h -3.318 V 0 c 0,-0.069 -0.025,-0.127 -0.075,-0.177 -0.048,-0.049 -0.104,-0.073 -0.171,-0.073 h -0.606 c -0.069,0 -0.127,0.024 -0.177,0.073 -0.048,0.05 -0.073,0.108 -0.073,0.177 v 6.384 c 0,0.069 0.025,0.128 0.073,0.178 0.05,0.048 0.108,0.073 0.177,0.073 h 0.606 c 0.067,0 0.123,-0.025 0.171,-0.073 0.05,-0.05 0.075,-0.109 0.075,-0.178 V 3.729 h 3.318 v 2.655 c 0,0.069 0.026,0.128 0.075,0.178 0.048,0.048 0.107,0.073 0.178,0.073 h 0.599 c 0.069,0 0.127,-0.025 0.177,-0.073 0.048,-0.05 0.073,-0.109 0.073,-0.178 z m -7.227,0 c 0,-0.069 -0.025,-0.127 -0.073,-0.177 -0.05,-0.049 -0.108,-0.073 -0.178,-0.073 h -0.598 c -0.072,0 -0.13,0.024 -0.178,0.073 -0.05,0.05 -0.075,0.108 -0.075,0.177 V 2.794 H -25.45 V 0 c 0,-0.069 -0.025,-0.127 -0.075,-0.177 -0.048,-0.049 -0.104,-0.073 -0.171,-0.073 h -0.605 c -0.069,0 -0.127,0.024 -0.178,0.073 -0.047,0.05 -0.072,0.108 -0.072,0.177 v 6.384 c 0,0.069 0.025,0.128 0.072,0.178 0.051,0.048 0.109,0.073 0.178,0.073 h 0.605 c 0.067,0 0.123,-0.025 0.171,-0.073 0.05,-0.05 0.075,-0.109 0.075,-0.178 V 3.729 h 3.319 v 2.655 c 0,0.069 0.025,0.128 0.075,0.178 0.048,0.048 0.106,0.073 0.178,0.073 h 0.598 c 0.07,0 0.128,-0.025 0.178,-0.073 0.048,-0.05 0.073,-0.109 0.073,-0.178 z m -8.098,2.715 v 0.954 c 0,1.394 -0.563,2.091 -1.692,2.091 -1.117,0 -1.677,-0.697 -1.677,-2.091 V 2.715 c 0,-1.394 0.56,-2.091 1.677,-2.091 0.552,0 0.974,0.177 1.262,0.534 0.288,0.357 0.43,0.877 0.43,1.557 m 1.102,0 c 0,-0.953 -0.244,-1.701 -0.735,-2.241 -0.488,-0.541 -1.175,-0.81 -2.059,-0.81 -0.886,0 -1.57,0.269 -2.056,0.808 -0.484,0.538 -0.727,1.285 -0.727,2.243 v 0.954 c 0,0.941 0.238,1.686 0.716,2.235 0.476,0.547 1.165,0.823 2.067,0.823 0.884,0 1.571,-0.272 2.059,-0.81 0.491,-0.541 0.735,-1.29 0.735,-2.248 z M -35.081,0 c 0,-0.069 -0.023,-0.127 -0.069,-0.177 -0.044,-0.049 -0.098,-0.073 -0.165,-0.073 h -0.628 c -0.067,0 -0.123,0.024 -0.169,0.073 -0.048,0.05 -0.071,0.108 -0.071,0.177 v 0.238 c -0.664,-0.382 -1.325,-0.574 -1.987,-0.574 -1.455,0 -2.183,0.868 -2.183,2.605 v 4.115 c 0,0.069 0.025,0.128 0.073,0.178 0.05,0.048 0.108,0.073 0.177,0.073 h 0.605 c 0.067,0 0.124,-0.025 0.172,-0.073 0.05,-0.05 0.075,-0.109 0.075,-0.178 V 2.269 c 0,-0.591 0.1,-1.015 0.303,-1.271 0.199,-0.257 0.561,-0.386 1.078,-0.386 0.472,0 1.036,0.162 1.687,0.488 v 5.284 c 0,0.065 0.025,0.123 0.077,0.174 0.05,0.052 0.108,0.077 0.173,0.077 h 0.618 c 0.063,0 0.117,-0.025 0.163,-0.073 0.046,-0.05 0.071,-0.109 0.071,-0.178 z m -8.165,1.175 v 5.209 c 0,0.069 0.025,0.128 0.076,0.178 0.047,0.048 0.106,0.073 0.177,0.073 h 0.599 c 0.068,0 0.127,-0.025 0.177,-0.073 0.048,-0.05 0.073,-0.109 0.073,-0.178 V 1.163 c 0,-0.172 -0.017,-0.326 -0.05,-0.459 h 0.49 c 0.069,0 0.128,-0.024 0.178,-0.072 0.048,-0.046 0.073,-0.102 0.073,-0.167 v -1.828 c 0,-0.069 -0.025,-0.129 -0.073,-0.177 -0.05,-0.05 -0.109,-0.073 -0.178,-0.073 h -0.588 c -0.069,0 -0.127,0.023 -0.177,0.073 -0.049,0.048 -0.073,0.108 -0.073,0.177 v 1.113 h -3.546 c -0.287,0 -0.535,0.024 -0.749,0.073 -0.213,0.05 -0.406,0.177 -0.575,0.386 -0.169,0.207 -0.254,0.53 -0.254,0.966 v 5.209 c 0,0.069 0.025,0.128 0.073,0.178 0.05,0.048 0.108,0.073 0.177,0.073 h 0.605 c 0.067,0 0.123,-0.025 0.171,-0.073 0.051,-0.05 0.076,-0.109 0.076,-0.178 V 1.175 c 0,-0.188 0.031,-0.313 0.096,-0.378 0.066,-0.063 0.192,-0.093 0.38,-0.093 h 2.366 c 0.192,0 0.32,0.03 0.382,0.093 0.063,0.065 0.094,0.19 0.094,0.378 m -8.53,2.206 2.782,-3.356 c 0.025,-0.025 0.038,-0.061 0.038,-0.11 0,-0.111 -0.046,-0.165 -0.136,-0.165 h -0.903 c -0.078,0 -0.134,0.012 -0.17,0.039 -0.035,0.027 -0.319,0.37 -0.853,1.031 l -1.759,2.171 V 0 c 0,-0.069 -0.026,-0.127 -0.076,-0.177 -0.048,-0.049 -0.104,-0.073 -0.171,-0.073 h -0.605 c -0.069,0 -0.127,0.024 -0.178,0.073 -0.047,0.05 -0.072,0.108 -0.072,0.177 v 6.384 c 0,0.069 0.025,0.128 0.072,0.178 0.051,0.048 0.109,0.073 0.178,0.073 h 0.605 c 0.067,0 0.123,-0.025 0.171,-0.073 0.05,-0.05 0.076,-0.109 0.076,-0.178 V 3.707 l 2.56,2.877 c 0.034,0.034 0.098,0.051 0.196,0.051 h 0.875 c 0.125,0 0.19,-0.046 0.19,-0.136 0,-0.044 -0.008,-0.077 -0.025,-0.096 z m -4.721,0.301 v 0.116 c 0,0.677 -0.129,1.171 -0.388,1.489 -0.259,0.315 -0.676,0.473 -1.25,0.473 -1.116,0 -1.676,-0.655 -1.676,-1.962 V 3.682 Z m 1.119,-0.564 c 0,-0.184 -0.08,-0.276 -0.238,-0.276 h -4.195 V 2.665 c 0,-0.703 0.138,-1.221 0.409,-1.548 0.274,-0.328 0.716,-0.493 1.327,-0.493 0.62,0 1.153,0.025 1.599,0.073 0.447,0.05 0.681,0.073 0.702,0.073 0.129,0 0.193,-0.061 0.193,-0.184 V 0.165 c 0,-0.113 -0.031,-0.194 -0.096,-0.238 -0.067,-0.044 -0.346,-0.1 -0.841,-0.165 -0.496,-0.065 -1.014,-0.098 -1.557,-0.098 -0.904,0 -1.605,0.254 -2.099,0.762 -0.494,0.507 -0.743,1.254 -0.743,2.239 v 1.133 c 0,0.904 0.242,1.618 0.726,2.142 0.486,0.524 1.171,0.787 2.056,0.787 0.881,0 1.559,-0.259 2.039,-0.775 0.478,-0.515 0.718,-1.233 0.718,-2.154 z m -7.893,-0.39 v 0.903 c 0,0.752 -0.132,1.299 -0.397,1.645 -0.265,0.347 -0.676,0.52 -1.229,0.52 -0.491,0 -0.979,-0.04 -1.467,-0.121 V 0.716 c 0.484,-0.086 0.972,-0.13 1.467,-0.13 0.557,0 0.968,0.171 1.231,0.512 0.263,0.34 0.395,0.882 0.395,1.63 m 1.106,0 c 0,-1.004 -0.231,-1.764 -0.693,-2.284 -0.463,-0.519 -1.143,-0.78 -2.039,-0.78 -0.453,0 -0.941,0.046 -1.467,0.133 v -2.262 c 0,-0.064 -0.023,-0.121 -0.069,-0.167 -0.044,-0.048 -0.1,-0.071 -0.165,-0.071 h -0.641 c -0.152,0 -0.227,0.079 -0.227,0.238 V 6.15 c 0,0.107 0.033,0.182 0.098,0.228 0.065,0.044 0.365,0.113 0.899,0.206 0.534,0.095 1.058,0.143 1.572,0.143 0.885,0 1.561,-0.268 2.029,-0.802 0.469,-0.534 0.703,-1.298 0.703,-2.294 z m -7.88,0 v 0.903 c 0,0.752 -0.132,1.299 -0.397,1.645 -0.265,0.347 -0.677,0.52 -1.23,0.52 -0.49,0 -0.978,-0.04 -1.467,-0.121 V 0.716 c 0.484,-0.086 0.973,-0.13 1.467,-0.13 0.558,0 0.969,0.171 1.232,0.512 0.263,0.34 0.395,0.882 0.395,1.63 m 1.106,0 c 0,-1.004 -0.232,-1.764 -0.694,-2.284 -0.463,-0.519 -1.143,-0.78 -2.039,-0.78 -0.453,0 -0.941,0.046 -1.467,0.133 v -2.262 c 0,-0.064 -0.023,-0.121 -0.069,-0.167 -0.043,-0.048 -0.1,-0.071 -0.165,-0.071 h -0.64 c -0.153,0 -0.228,0.079 -0.228,0.238 V 6.15 c 0,0.107 0.033,0.182 0.098,0.228 0.065,0.044 0.366,0.113 0.9,0.206 0.534,0.095 1.058,0.143 1.571,0.143 0.885,0 1.561,-0.268 2.029,-0.802 0.47,-0.534 0.704,-1.298 0.704,-2.294 z m -7.877,-0.013 v 0.954 c 0,1.394 -0.564,2.091 -1.693,2.091 -1.116,0 -1.676,-0.697 -1.676,-2.091 V 2.715 c 0,-1.394 0.56,-2.091 1.676,-2.091 0.553,0 0.975,0.177 1.263,0.534 0.288,0.357 0.43,0.877 0.43,1.557 m 1.102,0 c 0,-0.953 -0.244,-1.701 -0.735,-2.241 -0.488,-0.541 -1.175,-0.81 -2.06,-0.81 -0.885,0 -1.569,0.269 -2.055,0.808 -0.485,0.538 -0.727,1.285 -0.727,2.243 v 0.954 c 0,0.941 0.238,1.686 0.716,2.235 0.476,0.547 1.164,0.823 2.066,0.823 0.885,0 1.572,-0.272 2.06,-0.81 0.491,-0.541 0.735,-1.29 0.735,-2.248 z m -8.96,0.666 2.782,-3.356 c 0.025,-0.025 0.038,-0.061 0.038,-0.11 0,-0.111 -0.046,-0.165 -0.136,-0.165 h -0.904 c -0.077,0 -0.133,0.012 -0.169,0.039 -0.035,0.027 -0.319,0.37 -0.854,1.031 l -1.759,2.171 V 0 c 0,-0.069 -0.025,-0.127 -0.075,-0.177 -0.048,-0.049 -0.104,-0.073 -0.171,-0.073 h -0.605 c -0.069,0 -0.128,0.024 -0.178,0.073 -0.048,0.05 -0.073,0.108 -0.073,0.177 v 6.384 c 0,0.069 0.025,0.128 0.073,0.178 0.05,0.048 0.109,0.073 0.178,0.073 h 0.605 c 0.067,0 0.123,-0.025 0.171,-0.073 0.05,-0.05 0.075,-0.109 0.075,-0.178 V 3.707 l 2.561,2.877 c 0.033,0.034 0.098,0.051 0.196,0.051 h 0.875 c 0.125,0 0.19,-0.046 0.19,-0.136 0,-0.044 -0.009,-0.077 -0.025,-0.096 z" /></g><g
           transform="translate(137.3916,15.8369)"
           id="g52"><path
             id="path54"
             style="fill:#6f6e72;fill-opacity:1;fill-rule:evenodd;stroke:none"
             d="M 0,0 V 1.614 C 0,3.55 -0.743,4.519 -2.227,4.519 -3.721,4.519 -4.47,3.55 -4.47,1.614 V 0 c 0,-1.937 0.749,-2.905 2.243,-2.905 C -0.743,-2.905 0,-1.937 0,0 m 1.154,0 c 0,-1.279 -0.292,-2.256 -0.878,-2.926 -0.589,-0.67 -1.422,-1.006 -2.503,-1.006 -1.079,0 -1.916,0.336 -2.506,1.006 C -5.324,-2.256 -5.62,-1.279 -5.62,0 v 1.614 c 0,1.329 0.307,2.316 0.918,2.963 0.612,0.645 1.436,0.968 2.475,0.968 1.081,0 1.914,-0.336 2.503,-1.005 C 0.862,3.87 1.154,2.895 1.154,1.614 Z M -8.49,0.213 h -2.766 l 0.973,3.516 c 0.123,0.445 0.194,0.683 0.215,0.717 0.019,0.031 0.048,0.058 0.081,0.079 0.036,0.021 0.075,0.029 0.119,0.029 0.042,0 0.077,-0.006 0.105,-0.023 0.029,-0.016 0.054,-0.039 0.073,-0.069 0.021,-0.027 0.035,-0.054 0.044,-0.079 0.008,-0.023 0.102,-0.357 0.281,-0.995 z m -3.004,-0.989 h 3.242 L -7.53,-3.32 c 0.077,-0.282 0.134,-0.441 0.171,-0.474 0.035,-0.036 0.081,-0.052 0.133,-0.052 h 0.741 c 0.142,0 0.213,0.067 0.213,0.202 0,0.04 -0.004,0.069 -0.012,0.086 l -2.317,8.162 c -0.179,0.629 -0.601,0.941 -1.267,0.941 -0.672,0 -1.097,-0.316 -1.277,-0.953 l -2.316,-8.15 c -0.009,-0.029 -0.013,-0.059 -0.013,-0.086 0,-0.135 0.071,-0.202 0.213,-0.202 h 0.74 c 0.036,0 0.08,0.014 0.128,0.044 0.05,0.027 0.081,0.075 0.098,0.139 z m -2.901,3.442 V 2.83 c 0,0.616 -0.186,1.063 -0.559,1.336 -0.374,0.275 -0.975,0.413 -1.808,0.413 -0.407,0 -0.824,-0.017 -1.252,-0.048 V 0.862 c 0.766,-0.033 1.183,-0.05 1.252,-0.05 0.841,0 1.445,0.142 1.814,0.426 0.369,0.284 0.553,0.76 0.553,1.428 m 1.138,0 c 0,-1.871 -1.167,-2.808 -3.505,-2.808 -0.296,0 -0.714,0.021 -1.252,0.063 v -3.517 c 0,-0.065 -0.021,-0.123 -0.065,-0.173 -0.041,-0.052 -0.095,-0.077 -0.162,-0.077 h -0.673 c -0.064,0 -0.118,0.025 -0.16,0.073 -0.044,0.05 -0.065,0.108 -0.065,0.177 V 5.13 c 0,0.09 0.032,0.169 0.098,0.238 0.065,0.069 0.376,0.117 0.931,0.14 0.557,0.025 1.006,0.037 1.348,0.037 2.338,0 3.505,-0.905 3.505,-2.715 z m -10.659,-6.262 c 0,-0.069 -0.023,-0.127 -0.069,-0.177 -0.044,-0.048 -0.098,-0.073 -0.165,-0.073 h -0.628 c -0.067,0 -0.123,0.025 -0.169,0.073 -0.048,0.05 -0.071,0.108 -0.071,0.177 v 0.238 c -0.664,-0.382 -1.325,-0.574 -1.987,-0.574 -1.454,0 -2.183,0.869 -2.183,2.605 v 4.116 c 0,0.068 0.025,0.127 0.073,0.177 0.05,0.048 0.109,0.073 0.178,0.073 h 0.604 c 0.067,0 0.124,-0.025 0.172,-0.073 0.05,-0.05 0.075,-0.109 0.075,-0.177 v -4.116 c 0,-0.59 0.1,-1.014 0.303,-1.271 0.2,-0.257 0.561,-0.386 1.078,-0.386 0.472,0 1.036,0.163 1.687,0.488 v 5.285 c 0,0.065 0.025,0.123 0.077,0.173 0.05,0.052 0.108,0.077 0.173,0.077 h 0.618 c 0.063,0 0.117,-0.025 0.163,-0.073 0.046,-0.05 0.071,-0.109 0.071,-0.177 z m -9.231,3.381 2.782,-3.356 c 0.025,-0.025 0.037,-0.06 0.037,-0.11 0,-0.111 -0.046,-0.165 -0.135,-0.165 h -0.904 c -0.078,0 -0.134,0.013 -0.17,0.039 -0.035,0.028 -0.318,0.37 -0.853,1.032 l -1.759,2.17 v -2.991 c 0,-0.069 -0.025,-0.127 -0.076,-0.177 -0.047,-0.048 -0.104,-0.073 -0.171,-0.073 h -0.605 c -0.069,0 -0.127,0.025 -0.177,0.073 -0.048,0.05 -0.073,0.108 -0.073,0.177 v 6.385 c 0,0.068 0.025,0.127 0.073,0.177 0.05,0.048 0.108,0.073 0.177,0.073 h 0.605 c 0.067,0 0.124,-0.025 0.171,-0.073 0.051,-0.05 0.076,-0.109 0.076,-0.177 V 0.111 l 2.561,2.878 c 0.033,0.033 0.097,0.05 0.195,0.05 h 0.875 c 0.125,0 0.19,-0.046 0.19,-0.136 0,-0.044 -0.008,-0.077 -0.025,-0.096 z m -3.659,-3.381 c 0,-0.069 -0.023,-0.127 -0.069,-0.177 -0.044,-0.048 -0.098,-0.073 -0.165,-0.073 h -0.628 c -0.067,0 -0.124,0.025 -0.169,0.073 -0.049,0.05 -0.071,0.108 -0.071,0.177 v 0.238 c -0.664,-0.382 -1.325,-0.574 -1.987,-0.574 -1.455,0 -2.183,0.869 -2.183,2.605 v 4.116 c 0,0.068 0.025,0.127 0.073,0.177 0.05,0.048 0.108,0.073 0.177,0.073 h 0.605 c 0.067,0 0.123,-0.025 0.172,-0.073 0.05,-0.05 0.074,-0.109 0.074,-0.177 v -4.116 c 0,-0.59 0.101,-1.014 0.303,-1.271 0.2,-0.257 0.562,-0.386 1.079,-0.386 0.472,0 1.035,0.163 1.687,0.488 v 5.285 c 0,0.065 0.025,0.123 0.077,0.173 0.05,0.052 0.108,0.077 0.173,0.077 h 0.618 c 0.062,0 0.117,-0.025 0.163,-0.073 0.045,-0.05 0.071,-0.109 0.071,-0.177 z m -6.533,5.688 h -2.196 c -0.188,0 -0.313,-0.034 -0.38,-0.098 -0.064,-0.065 -0.096,-0.193 -0.096,-0.38 v -5.21 c 0,-0.069 -0.025,-0.127 -0.075,-0.177 -0.048,-0.048 -0.104,-0.073 -0.171,-0.073 h -0.605 c -0.069,0 -0.127,0.025 -0.178,0.073 -0.047,0.05 -0.072,0.108 -0.072,0.177 v 5.21 c 0,0.436 0.085,0.76 0.254,0.97 0.169,0.209 0.361,0.338 0.574,0.384 0.215,0.048 0.463,0.071 0.749,0.071 h 2.196 c 0.068,0 0.127,-0.025 0.177,-0.073 0.048,-0.05 0.073,-0.109 0.073,-0.177 V 2.342 c 0,-0.069 -0.025,-0.13 -0.073,-0.177 -0.05,-0.05 -0.109,-0.073 -0.177,-0.073 m -6.199,-2.972 v 0.953 c 0,1.394 -0.564,2.092 -1.692,2.092 -1.117,0 -1.677,-0.698 -1.677,-2.092 V -0.88 c 0,-1.394 0.56,-2.092 1.677,-2.092 0.552,0 0.974,0.178 1.262,0.534 0.288,0.357 0.43,0.877 0.43,1.558 m 1.101,0 c 0,-0.954 -0.243,-1.702 -0.734,-2.242 -0.488,-0.541 -1.175,-0.81 -2.059,-0.81 -0.886,0 -1.57,0.269 -2.057,0.808 -0.484,0.539 -0.726,1.286 -0.726,2.244 v 0.953 c 0,0.942 0.238,1.687 0.716,2.236 0.476,0.546 1.165,0.822 2.067,0.822 0.884,0 1.571,-0.272 2.059,-0.81 0.491,-0.54 0.734,-1.29 0.734,-2.248 z m -6.3,2.972 h -2.196 c -0.188,0 -0.313,-0.034 -0.38,-0.098 -0.064,-0.065 -0.096,-0.193 -0.096,-0.38 v -5.21 c 0,-0.069 -0.025,-0.127 -0.075,-0.177 -0.048,-0.048 -0.104,-0.073 -0.171,-0.073 h -0.605 c -0.069,0 -0.128,0.025 -0.178,0.073 -0.048,0.05 -0.073,0.108 -0.073,0.177 v 5.21 c 0,0.436 0.086,0.76 0.255,0.97 0.169,0.209 0.361,0.338 0.574,0.384 0.215,0.048 0.463,0.071 0.749,0.071 h 2.196 c 0.069,0 0.127,-0.025 0.177,-0.073 0.048,-0.05 0.073,-0.109 0.073,-0.177 V 2.342 c 0,-0.069 -0.025,-0.13 -0.073,-0.177 -0.05,-0.05 -0.108,-0.073 -0.177,-0.073 m -6.429,-4.623 v 2.018 h -0.924 c -0.697,0 -1.19,-0.084 -1.48,-0.249 -0.288,-0.165 -0.434,-0.492 -0.434,-0.98 v -0.153 c 0,-0.397 0.086,-0.684 0.256,-0.866 0.172,-0.181 0.47,-0.271 0.894,-0.271 0.518,0 1.081,0.167 1.688,0.501 m 1.106,-1.065 c 0,-0.069 -0.024,-0.127 -0.077,-0.177 -0.05,-0.048 -0.109,-0.073 -0.173,-0.073 h -0.58 c -0.067,0 -0.123,0.025 -0.172,0.073 -0.049,0.05 -0.074,0.108 -0.074,0.177 v 0.276 c -0.697,-0.407 -1.34,-0.612 -1.931,-0.612 -0.658,0 -1.161,0.171 -1.513,0.512 -0.353,0.34 -0.53,0.843 -0.53,1.513 v 0.152 c 0,0.697 0.231,1.211 0.695,1.538 0.461,0.328 1.237,0.493 2.325,0.493 h 0.924 v 0.5 c 0,0.518 -0.1,0.884 -0.296,1.094 -0.198,0.213 -0.547,0.319 -1.043,0.319 -0.472,0 -0.871,-0.012 -1.192,-0.037 l -0.777,-0.067 c -0.154,0 -0.234,0.069 -0.234,0.207 v 0.434 c 0,0.09 0.034,0.154 0.099,0.19 0.067,0.038 0.304,0.081 0.716,0.136 0.411,0.052 0.874,0.079 1.388,0.079 1.63,0 2.445,-0.785 2.445,-2.355 z m -9.584,5.51 -1.314,-4.806 h 3.12 l -1.315,4.806 c -0.042,0.15 -0.121,0.226 -0.24,0.226 -0.126,0 -0.209,-0.076 -0.251,-0.226 m 3.523,-4.806 c 0.069,0 0.128,-0.023 0.178,-0.071 0.048,-0.046 0.073,-0.102 0.073,-0.167 v -1.828 c 0,-0.069 -0.025,-0.13 -0.073,-0.178 -0.05,-0.05 -0.109,-0.073 -0.178,-0.073 h -0.592 c -0.067,0 -0.123,0.023 -0.171,0.073 -0.051,0.048 -0.075,0.109 -0.075,0.178 v 1.112 h -4.738 v -1.112 c 0,-0.069 -0.025,-0.13 -0.074,-0.178 -0.049,-0.05 -0.108,-0.073 -0.177,-0.073 h -0.586 c -0.071,0 -0.13,0.023 -0.177,0.073 -0.051,0.048 -0.076,0.109 -0.076,0.178 v 1.828 c 0,0.065 0.025,0.121 0.076,0.167 0.047,0.048 0.106,0.071 0.177,0.071 h 0.415 l 1.449,5.069 c 0.179,0.635 0.605,0.954 1.277,0.954 0.67,0 1.091,-0.315 1.267,-0.942 l 1.429,-5.081 z m -8.294,2.978 v 0.117 c 0,0.676 -0.129,1.171 -0.388,1.488 -0.259,0.315 -0.676,0.474 -1.25,0.474 -1.117,0 -1.676,-0.656 -1.676,-1.962 V 0.086 Z m 1.119,-0.564 c 0,-0.184 -0.08,-0.275 -0.238,-0.275 h -4.195 V -0.93 c 0,-0.704 0.138,-1.222 0.409,-1.549 0.273,-0.328 0.716,-0.493 1.327,-0.493 0.62,0 1.152,0.025 1.598,0.074 0.448,0.049 0.681,0.072 0.702,0.072 0.13,0 0.194,-0.06 0.194,-0.183 v -0.422 c 0,-0.112 -0.031,-0.194 -0.096,-0.238 -0.067,-0.043 -0.346,-0.1 -0.841,-0.164 -0.497,-0.065 -1.014,-0.099 -1.557,-0.099 -0.903,0 -1.605,0.255 -2.099,0.762 -0.495,0.507 -0.743,1.254 -0.743,2.24 v 1.133 c 0,0.903 0.242,1.617 0.726,2.141 0.486,0.524 1.171,0.787 2.056,0.787 0.88,0 1.558,-0.259 2.039,-0.775 0.477,-0.515 0.718,-1.233 0.718,-2.153 z m -6.87,2.092 v -5.21 c 0,-0.069 -0.024,-0.127 -0.072,-0.177 -0.051,-0.048 -0.109,-0.073 -0.178,-0.073 h -0.599 c -0.071,0 -0.129,0.025 -0.177,0.073 -0.05,0.05 -0.075,0.108 -0.075,0.177 v 5.21 c 0,0.187 -0.032,0.315 -0.096,0.38 -0.067,0.064 -0.192,0.098 -0.38,0.098 h -2.367 c -0.188,0 -0.313,-0.034 -0.38,-0.098 -0.064,-0.065 -0.096,-0.193 -0.096,-0.38 v -5.21 c 0,-0.069 -0.025,-0.127 -0.075,-0.177 -0.047,-0.048 -0.104,-0.073 -0.171,-0.073 h -0.605 c -0.069,0 -0.127,0.025 -0.178,0.073 -0.048,0.05 -0.073,0.108 -0.073,0.177 v 5.21 c 0,0.436 0.086,0.76 0.255,0.97 0.169,0.209 0.361,0.338 0.574,0.384 0.215,0.048 0.463,0.071 0.749,0.071 h 2.367 c 0.29,0 0.54,-0.023 0.755,-0.071 0.213,-0.046 0.405,-0.175 0.572,-0.384 0.167,-0.21 0.25,-0.534 0.25,-0.97" /></g></g></g></g></svg>