<svg width="35" height="31" viewBox="0 0 35 31" fill="none" xmlns="http://www.w3.org/2000/svg">
<path d="M34.9842 1.35798C35.0175 1.15759 34.9979 0.951973 34.9274 0.761476C34.8568 0.570979 34.7377 0.402206 34.5819 0.271856C34.4261 0.141506 34.239 0.0540975 34.039 0.018279C33.8391 -0.0175394 33.6332 -0.000526062 33.4419 0.0676354L0.774818 11.7344C0.55949 11.8112 0.371466 11.9496 0.234101 12.1323C0.0967365 12.315 0.016085 12.5341 0.00216521 12.7623C-0.0117545 12.9905 0.0416709 13.2177 0.155805 13.4158C0.269939 13.6139 0.439752 13.7741 0.64415 13.8765L9.97759 18.5432C10.1615 18.6352 10.3665 18.677 10.5718 18.6643C10.7771 18.6516 10.9754 18.5849 11.1466 18.4708L18.8934 13.3048L14.257 19.1055C14.1561 19.2318 14.0825 19.3776 14.0409 19.5338C13.9994 19.69 13.9907 19.8531 14.0155 20.0128C14.0403 20.1725 14.098 20.3253 14.185 20.4616C14.2719 20.5978 14.3862 20.7145 14.5206 20.8042L28.5208 30.1376C28.6829 30.2454 28.8694 30.3109 29.0634 30.3282C29.2573 30.3454 29.4524 30.3139 29.631 30.2364C29.8096 30.159 29.966 30.038 30.0859 29.8846C30.2058 29.7313 30.2854 29.5503 30.3175 29.3583L34.9842 1.35798Z" fill="#596EEF" fill-opacity="0.5"/>
</svg>
