<svg width="19" height="19" viewBox="0 0 19 19" fill="none" xmlns="http://www.w3.org/2000/svg">
<path d="M19 2.22656V16.7734C19 18.0012 18.0012 19 16.7734 19H7.83008C6.60228 19 5.60352 18.0012 5.60352 16.7734V13.8047H7.08789V16.7734C7.08789 17.1827 7.42086 17.5156 7.83008 17.5156H16.7734C17.1827 17.5156 17.5156 17.1827 17.5156 16.7734V2.22656C17.5156 1.81734 17.1827 1.48438 16.7734 1.48438H7.83008C7.42086 1.48438 7.08789 1.81734 7.08789 2.22656V5.19531H5.60352V2.22656C5.60352 0.998764 6.60228 0 7.83008 0H16.7734C18.0012 0 19 0.998764 19 2.22656ZM7.89371 11.9492L8.94336 12.9989L12.4422 9.5L8.94336 6.00114L7.89371 7.05078L9.60075 8.75781H0V10.2422H9.60075L7.89371 11.9492Z" fill="white"/>
</svg>
