<svg width="149" height="66" viewBox="0 0 149 66" fill="none" xmlns="http://www.w3.org/2000/svg">
<path d="M88.16 41H100.64V38.552H90.752V24.704H88.16V41ZM109.315 41.36C113.083 41.36 116.107 38.432 116.107 34.808C116.107 31.184 113.083 28.232 109.315 28.232C105.547 28.232 102.523 31.184 102.523 34.808C102.523 38.432 105.547 41.36 109.315 41.36ZM109.315 39.032C106.867 39.032 105.019 37.136 105.019 34.808C105.019 32.456 106.867 30.56 109.315 30.56C111.763 30.56 113.611 32.456 113.611 34.808C113.611 37.136 111.763 39.032 109.315 39.032ZM124.158 46.4C129.294 46.4 131.238 43.328 131.238 39.704L131.286 28.592H128.694V29.792C127.83 28.928 126.318 28.232 124.518 28.232C120.726 28.232 118.038 31.184 118.038 34.808C118.038 38.432 120.726 41.36 124.518 41.36C126.51 41.36 127.83 40.592 128.646 39.752V40.04C128.646 42.944 126.87 44.096 124.062 44.096C121.014 44.096 119.19 42.8 119.19 42.8V45.128C119.19 45.128 120.534 46.4 124.158 46.4ZM124.71 39.056C122.382 39.056 120.63 37.136 120.63 34.784C120.63 32.432 122.382 30.536 124.71 30.536C127.014 30.536 128.838 32.096 128.838 34.784C128.838 37.496 127.014 39.056 124.71 39.056ZM140.299 41.36C144.067 41.36 147.091 38.432 147.091 34.808C147.091 31.184 144.067 28.232 140.299 28.232C136.531 28.232 133.507 31.184 133.507 34.808C133.507 38.432 136.531 41.36 140.299 41.36ZM140.299 39.032C137.851 39.032 136.003 37.136 136.003 34.808C136.003 32.456 137.851 30.56 140.299 30.56C142.747 30.56 144.595 32.456 144.595 34.808C144.595 37.136 142.747 39.032 140.299 39.032Z" fill="#596EEF"/>
<path d="M21.4286 26.7963L10.7214 20.5714L0 26.7963V39.2178L10.7214 45.4286L21.4286 39.2178V26.7963ZM19.123 37.8818L10.7214 42.7424L2.31969 37.8818V28.1323L10.7214 23.2575L19.123 28.1323V37.8818Z" fill="#596EEF"/>
<path d="M44.5714 26.7822L34.2789 20.5714L23.9999 26.7822V39.2036L34.2789 45.4286L44.5714 39.2036V26.7822Z" fill="#596EEF"/>
<path d="M57.8501 20.5714L47.1429 26.7963V39.2178L57.8501 45.4286L68.5715 39.2178V26.7963L57.8501 20.5714ZM66.252 37.8818L57.8501 42.7424L49.4484 37.8818V28.1323L57.8501 23.2575L66.252 28.1323V37.8818Z" fill="#596EEF"/>
<path d="M12.0001 47.3678V59.7894L22.7355 66.0001L33.4286 59.7894V47.3678L22.7355 41.1429L12.0001 47.3678ZM31.0837 58.496L22.7355 63.3139L14.2602 58.496V48.7038L22.7355 43.829L31.112 48.7038L31.0837 58.496Z" fill="#596EEF"/>
<path d="M35.1428 47.3678V59.7894L45.85 66.0001L56.5714 59.7894V47.3678L45.85 41.1429L35.1428 47.3678ZM54.2517 58.496L45.85 63.3566L37.4625 58.496V48.7038L45.85 43.829L54.2517 48.7038V58.496Z" fill="#596EEF"/>
<path d="M33.4286 18.6464V6.18231L22.7497 0L12.0001 6.18231V18.6038L22.7497 24.8571L33.4286 18.6464ZM14.2632 7.60354L22.7497 2.68611L31.109 7.60354V17.3531L22.7497 22.171L14.2632 17.3104V7.60354Z" fill="#596EEF"/>
<path d="M56.5714 18.6891V6.22492L45.85 0L35.1428 6.22492V18.6464L45.85 24.8571L56.5714 18.6891ZM37.4625 7.64614L45.85 2.7714L54.2517 7.64614V17.3957L45.85 22.2563L37.4625 17.3957V7.64614Z" fill="#596EEF"/>
</svg>
