<svg width="26" height="37" viewBox="0 0 26 37" fill="none" xmlns="http://www.w3.org/2000/svg">
<path d="M11.5096 10.5606L7.1094 0H5.90625L10.3705 10.714C10.7451 10.6472 11.1249 10.5961 11.5096 10.5606Z" fill="#C2CEDF"/>
<path d="M18.144 11.5797L22.9689 0H21.1095L16.5212 11.0117C17.0735 11.1668 17.6155 11.3565 18.144 11.5797Z" fill="#C2CEDF"/>
<path d="M6.26514 12.1488L1.20315 0H0L5.30102 12.7224C5.614 12.5188 5.93537 12.3276 6.26514 12.1488Z" fill="#C2CEDF"/>
<path d="M19.6876 0H18.4845L14.0842 10.5606C14.4686 10.5964 14.8484 10.6475 15.2234 10.714L19.6876 0Z" fill="#C2CEDF"/>
<path d="M19.3286 12.1488C19.6583 12.3271 19.9797 12.5183 20.2927 12.7223L25.5938 0H24.3906L19.3286 12.1488Z" fill="#C2CEDF"/>
<path d="M11.6179 21.7306C11.5718 21.8277 11.5025 21.912 11.4161 21.9761C11.3298 22.0401 11.229 22.082 11.1227 22.098L8.23438 22.5328L10.3196 24.7277C10.3972 24.8095 10.4525 24.9098 10.4801 25.019C10.5077 25.1283 10.5067 25.2428 10.4772 25.3516L9.72365 28.1276L12.4587 26.4825C12.5609 26.4211 12.6778 26.3886 12.797 26.3886C12.9161 26.3886 13.033 26.4211 13.1352 26.4825L15.8703 28.1276L15.1167 25.3516C15.0872 25.2428 15.0862 25.1283 15.1138 25.019C15.1414 24.9098 15.1967 24.8095 15.2743 24.7277L17.3595 22.5328L14.4712 22.098C14.3649 22.082 14.2641 22.0401 14.1778 21.9761C14.0914 21.912 14.0221 21.8277 13.976 21.7306L12.797 19.2483L11.6179 21.7306Z" fill="#C2CEDF"/>
<path d="M3.60938 24.2812C3.60938 26.0984 4.14821 27.8747 5.15775 29.3856C6.16728 30.8964 7.60217 32.074 9.28097 32.7694C10.9598 33.4648 12.8071 33.6467 14.5893 33.2922C16.3715 32.9377 18.0085 32.0627 19.2934 30.7778C20.5783 29.4929 21.4533 27.8558 21.8078 26.0736C22.1623 24.2914 21.9804 22.4441 21.285 20.7653C20.5896 19.0866 19.4121 17.6517 17.9012 16.6421C16.3903 15.6326 14.614 15.0937 12.7969 15.0938C10.361 15.0965 8.02577 16.0654 6.30338 17.7878C4.58098 19.5101 3.61213 21.8454 3.60938 24.2812ZM13.3897 17.4371L15.0117 20.8523L18.8007 21.4222C18.9194 21.4401 19.0309 21.4901 19.1232 21.5669C19.2154 21.6438 19.2848 21.7444 19.3238 21.8579C19.3628 21.9714 19.3699 22.0935 19.3444 22.2107C19.3188 22.328 19.2616 22.436 19.179 22.5231L16.4802 25.364L17.5648 29.3597C17.5991 29.4861 17.5948 29.6199 17.5524 29.7438C17.5101 29.8678 17.4316 29.9762 17.3271 30.0552C17.2226 30.1341 17.0969 30.18 16.9661 30.187C16.8353 30.1939 16.7054 30.1615 16.5932 30.094L12.7969 27.8103L9.00072 30.0936C8.88848 30.1611 8.75861 30.1935 8.62782 30.1865C8.49702 30.1796 8.37129 30.1337 8.2668 30.0548C8.16231 29.9758 8.08384 29.8674 8.04149 29.7434C7.99913 29.6195 7.99483 29.4857 8.02914 29.3593L9.11375 25.3636L6.41493 22.5227C6.33228 22.4356 6.27507 22.3276 6.24955 22.2103C6.22402 22.093 6.23115 21.971 6.27015 21.8575C6.30915 21.744 6.37853 21.6434 6.47075 21.5665C6.56297 21.4897 6.67448 21.4397 6.79317 21.4218L10.582 20.8523L12.204 17.4375C12.2572 17.3254 12.3412 17.2306 12.4461 17.1643C12.551 17.0979 12.6726 17.0627 12.7968 17.0627C12.9209 17.0627 13.0426 17.0979 13.1475 17.1643C13.2524 17.2306 13.3364 17.3254 13.3896 17.4375L13.3897 17.4371Z" fill="#C2CEDF"/>
<path d="M0.328125 24.2812C0.328125 31.1565 5.92159 36.75 12.7969 36.75C19.6722 36.75 25.2656 31.1565 25.2656 24.2812C25.2656 17.406 19.6722 11.8125 12.7969 11.8125C5.92159 11.8125 0.328125 17.406 0.328125 24.2812ZM23.2969 24.2812C23.2969 26.358 22.6811 28.388 21.5273 30.1147C20.3736 31.8415 18.7337 33.1873 16.8151 33.982C14.8964 34.7767 12.7852 34.9846 10.7484 34.5795C8.71163 34.1744 6.8407 33.1743 5.37225 31.7059C3.9038 30.2374 2.90377 28.3665 2.49863 26.3297C2.09349 24.2929 2.30142 22.1817 3.09614 20.2631C3.89086 18.3444 5.23667 16.7046 6.96339 15.5508C8.6901 14.3971 10.7202 13.7812 12.7969 13.7812C15.5807 13.7844 18.2495 14.8917 20.218 16.8601C22.1864 18.8286 23.2937 21.4974 23.2969 24.2812Z" fill="#C2CEDF"/>
<path d="M9.07266 11.0117L4.4844 0H2.625L7.44991 11.5797C7.97838 11.3565 8.52036 11.1668 9.07266 11.0117Z" fill="#C2CEDF"/>
</svg>
