<svg width="20" height="20" viewBox="0 0 20 20" fill="none" xmlns="http://www.w3.org/2000/svg">
<path d="M10.1274 19.0587H8.93126C7.96385 19.0587 7.17675 18.2716 7.17675 17.3042V16.8995C6.76546 16.7681 6.36586 16.6023 5.98197 16.4036L5.69519 16.6904C5.00063 17.3858 3.88804 17.3654 3.21366 16.6901L2.36826 15.8448C1.69269 15.1699 1.67326 14.0577 2.36849 13.3632L2.65504 13.0767C2.45637 12.6928 2.29054 12.2933 2.1591 11.8819H1.75448C0.787101 11.8819 0 11.0948 0 10.1274V8.93126C0 7.96385 0.787101 7.17678 1.75452 7.17678H2.15914C2.29058 6.76546 2.45641 6.3659 2.65507 5.98201L2.3683 5.69527C1.67348 5.00119 1.69265 3.88886 2.36852 3.21373L3.21399 2.3683C3.88994 1.69142 5.00227 1.67452 5.69549 2.36852L5.98201 2.65504C6.3659 2.45641 6.7655 2.29054 7.17678 2.1591V1.75448C7.17678 0.787064 7.96385 0 8.9313 0H10.1274C11.0948 0 11.8819 0.787064 11.8819 1.75448V2.15914C12.2932 2.29054 12.6928 2.45641 13.0767 2.65507L13.3634 2.3683C14.058 1.67288 15.1706 1.69328 15.845 2.36856L16.6904 3.21392C17.366 3.88875 17.3854 5.00097 16.6902 5.69546L16.4036 5.98201C16.6023 6.3659 16.7681 6.76542 16.8995 7.17678H17.3042C18.2716 7.17678 19.0587 7.96385 19.0587 8.93126V10.1274C19.0587 11.0948 18.2716 11.8819 17.3042 11.8819H16.8995C16.7681 12.2932 16.6023 12.6928 16.4036 13.0767L16.6904 13.3634C17.3852 14.0575 17.366 15.1699 16.6902 15.845L15.8447 16.6904C15.1687 17.3673 14.0564 17.3842 13.3632 16.6902L13.0767 16.4037C12.6928 16.6023 12.2932 16.7682 11.8819 16.8996V17.3043C11.8819 18.2716 11.0948 19.0587 10.1274 19.0587ZM6.16865 15.2309C6.70195 15.5463 7.27595 15.7846 7.87466 15.9391C8.12123 16.0027 8.2935 16.2251 8.2935 16.4798V17.3042C8.2935 17.6559 8.57964 17.942 8.9313 17.942H10.1274C10.4791 17.942 10.7652 17.6559 10.7652 17.3042V16.4798C10.7652 16.2251 10.9375 16.0027 11.1841 15.9391C11.7828 15.7846 12.3568 15.5463 12.8901 15.2309C13.1095 15.1012 13.3889 15.1365 13.5691 15.3167L14.1531 15.9007C14.4049 16.1528 14.8092 16.147 15.0548 15.901L15.9008 15.0551C16.1458 14.8103 16.154 14.4059 15.901 14.1533L15.3168 13.5691C15.1366 13.3888 15.1013 13.1094 15.231 12.89C15.5464 12.3568 15.7846 11.7828 15.9392 11.184C16.0028 10.9374 16.2252 10.7652 16.4798 10.7652H17.3042C17.6559 10.7652 17.942 10.4791 17.942 10.1275V8.9313C17.942 8.57964 17.6559 8.29354 17.3042 8.29354H16.4798C16.2252 8.29354 16.0028 8.12127 15.9392 7.87473C15.7846 7.27599 15.5464 6.70199 15.231 6.16872C15.1013 5.94932 15.1366 5.66992 15.3168 5.48968L15.9008 4.90567C16.1533 4.65352 16.1467 4.24927 15.901 4.00392L15.0551 3.15801C14.8099 2.91248 14.4055 2.90529 14.1534 3.15778L13.5692 3.74202C13.3889 3.92229 13.1095 3.95758 12.8901 3.82782C12.3568 3.51242 11.7828 3.27415 11.1841 3.11963C10.9375 3.05601 10.7652 2.83364 10.7652 2.57899V1.75448C10.7652 1.40282 10.4791 1.11672 10.1275 1.11672H8.93134C8.57968 1.11672 8.29354 1.40282 8.29354 1.75448V2.57891C8.29354 2.83356 8.12127 3.05594 7.8747 3.11956C7.27599 3.27407 6.70199 3.51234 6.16868 3.82774C5.94921 3.95747 5.66985 3.92218 5.48961 3.74194L4.90564 3.15793C4.65385 2.90585 4.24949 2.9117 4.00392 3.15767L3.15793 4.00363C2.91293 4.24834 2.90474 4.6527 3.15771 4.90538L3.74194 5.48961C3.92218 5.66985 3.95747 5.94925 3.82774 6.16865C3.51234 6.70192 3.27411 7.27591 3.11959 7.87466C3.05594 8.12123 2.83356 8.29347 2.57895 8.29347H1.75452C1.40286 8.2935 1.11672 8.57961 1.11672 8.93126V10.1274C1.11672 10.4791 1.40286 10.7652 1.75452 10.7652H2.57891C2.83356 10.7652 3.0559 10.9374 3.11956 11.184C3.27407 11.7827 3.51234 12.3567 3.8277 12.89C3.95743 13.1094 3.92214 13.3888 3.7419 13.569L3.1579 14.153C2.90544 14.4052 2.91203 14.8094 3.15767 15.0548L4.00359 15.9007C4.24878 16.1462 4.65318 16.1534 4.90534 15.9009L5.48953 15.3167C5.62235 15.1839 5.89866 15.0712 6.16865 15.2309Z" fill="white"/>
<path d="M9.52956 13.6761C7.24301 13.6761 5.38281 11.8159 5.38281 9.52935C5.38281 7.24283 7.24301 5.3826 9.52956 5.3826C11.8161 5.3826 13.6763 7.24283 13.6763 9.52935C13.6763 11.8159 11.8161 13.6761 9.52956 13.6761ZM9.52956 6.49932C7.85877 6.49932 6.49953 7.85859 6.49953 9.52935C6.49953 11.2001 7.8588 12.5594 9.52956 12.5594C11.2003 12.5594 12.5596 11.2001 12.5596 9.52935C12.5596 7.85859 11.2004 6.49932 9.52956 6.49932Z" fill="white"/>
</svg>
